<?xml version="1.0" encoding="iso-8859-1"?>
<!-- Uploaded to: SVG Repo, www.svgrepo.com, Generator: SVG Repo Mixer Tools -->
<svg version="1.1" id="Layer_1" xmlns="http://www.w3.org/2000/svg" xmlns:xlink="http://www.w3.org/1999/xlink" 
	 viewBox="0 0 512 512" xml:space="preserve">
<rect x="10.03" y="85" style="fill:#EDEEF0;" width="491.94" height="427"/>
<polygon style="fill:#DCDEE2;" points="501.406,85.004 255.437,85.004 255.437,512 501.406,512 501.406,512 "/>
<path style="fill:#D8D9DD;" d="M375.86,242.312l71.923-82.286L372.53,99.198C363.51,42.963,314.775,0,256,0
	S148.49,42.965,139.471,99.198l-75.253,60.828l71.922,82.286l-38.721,28.152l146.146,134.881V512h24.87V405.345l146.146-134.88
	L375.86,242.312z"/>
<g>
	<rect x="317.76" y="415.25" style="fill:#FFFFFF;" width="132.94" height="36.12"/>
	<path style="fill:#FFFFFF;" d="M317.764,512h119.135c4.738,0,9.353-0.52,13.803-1.481v-44.893H317.764V512z"/>
	<rect x="38.847" y="386.03" style="fill:#FFFFFF;" width="120.77" height="73.44"/>
</g>
<rect x="92.64" y="368.83" style="fill:#9B9DA6;" width="13.177" height="23.2"/>
<path style="fill:#B7B9C0;" d="M375.86,242.312l71.923-82.286L372.53,99.198C363.51,42.963,314.775,0,256,0v333.487v83.334V512
	h12.436V405.345l146.146-134.88L375.86,242.312z"/>
<rect x="99.23" y="429.88" style="fill:#9B9DA6;" width="40.727" height="6.997"/>
<rect x="52.57" y="408.61" style="fill:#61A2EF;" width="28.27" height="28.27"/>
<rect x="99.23" y="408.61" style="fill:#9B9DA6;" width="40.727" height="6.997"/>
<path style="fill:#FFFFFF;" d="M324.408,215.668c13.298-22.764,23.934-47.636,27.083-73.986c0.245-2.054,0.444-4.114,0.594-6.177
	c1.68-23.078-4.161-46.196-17.823-65.145c-11.192-15.522-27.258-27.729-45.243-34.28c-4.421-1.611-8.96-2.897-13.57-3.84
	c-6.274-1.284-12.771-1.959-19.426-1.959c-53.234,0-96.387,43.155-96.387,96.388c0,87.266,96.378,173.308,96.388,173.316
	c0.743,0.671,21.671-21.865,22.859-23.174c16.555-18.251,31.743-37.927,44.339-59.128
	C323.618,217.012,324.014,216.341,324.408,215.668z"/>
<path style="fill:#EDEEF0;" d="M256,299.984c0.007-0.006,96.388-86.049,96.388-173.316c0-53.234-43.155-96.387-96.388-96.387
	V299.984z"/>
</svg>